<?xml version="1.0" standalone="no"?>
<!DOCTYPE svg PUBLIC "-//W3C//DTD SVG 20010904//EN"
 "http://www.w3.org/TR/2001/REC-SVG-20010904/DTD/svg10.dtd">
<svg version="1.0" xmlns="http://www.w3.org/2000/svg"
 width="25.000000pt" height="24.000000pt" viewBox="0 0 25.000000 24.000000"
 preserveAspectRatio="xMidYMid meet">

<g transform="translate(0.000000,24.000000) scale(0.100000,-0.100000)"
fill="#000000" stroke="none">
<path d="M10 115 l0 -115 115 0 115 0 0 115 0 115 -115 0 -115 0 0 -115z m220
0 l0 -105 -105 0 -105 0 0 105 0 105 105 0 105 0 0 -105z"/>
<path d="M37 204 c-3 -4 -4 -11 0 -17 3 -6 5 -39 4 -74 l-2 -63 67 0 c47 0 73
-5 85 -16 9 -8 19 -11 22 -6 7 11 -167 185 -176 176z"/>
<path d="M160 115 c30 -30 56 -55 57 -55 2 0 3 23 3 52 0 50 0 51 -20 33 -19
-18 -20 -17 -20 3 0 19 -6 22 -37 22 l-37 0 54 -55z"/>
</g>
</svg>
